<svg width="396" height="109" viewBox="0 0 396 109" fill="none" xmlns="http://www.w3.org/2000/svg">
<g filter="url(#filter0_di_38_5)">
<path d="M54.0711 102.132C53.4771 102.132 52.9235 102.037 52.4101 101.846C51.9041 101.648 51.4641 101.369 51.0901 101.01C50.7161 100.651 50.4228 100.229 50.2101 99.745C50.0048 99.261 49.9021 98.7293 49.9021 98.15C49.9021 97.5707 50.0048 97.039 50.2101 96.555C50.4228 96.071 50.7161 95.6493 51.0901 95.29C51.4715 94.9307 51.9151 94.6557 52.4211 94.465C52.9271 94.267 53.4808 94.168 54.0821 94.168C54.7495 94.168 55.3508 94.2853 55.8861 94.52C56.4288 94.7473 56.8835 95.0847 57.2501 95.532L56.1061 96.588C55.8421 96.2873 55.5488 96.0637 55.2261 95.917C54.9035 95.763 54.5515 95.686 54.1701 95.686C53.8108 95.686 53.4808 95.7447 53.1801 95.862C52.8795 95.9793 52.6191 96.148 52.3991 96.368C52.1791 96.588 52.0068 96.8483 51.8821 97.149C51.7648 97.4497 51.7061 97.7833 51.7061 98.15C51.7061 98.5167 51.7648 98.8503 51.8821 99.151C52.0068 99.4517 52.1791 99.712 52.3991 99.932C52.6191 100.152 52.8795 100.321 53.1801 100.438C53.4808 100.555 53.8108 100.614 54.1701 100.614C54.5515 100.614 54.9035 100.541 55.2261 100.394C55.5488 100.24 55.8421 100.009 56.1061 99.701L57.2501 100.757C56.8835 101.204 56.4288 101.545 55.8861 101.78C55.3508 102.015 54.7458 102.132 54.0711 102.132ZM62.0324 102.132C61.4237 102.132 60.8591 102.033 60.3384 101.835C59.8251 101.637 59.3777 101.358 58.9964 100.999C58.6224 100.64 58.3291 100.218 58.1164 99.734C57.9111 99.25 57.8084 98.722 57.8084 98.15C57.8084 97.578 57.9111 97.05 58.1164 96.566C58.3291 96.082 58.6261 95.6603 59.0074 95.301C59.3887 94.9417 59.8361 94.663 60.3494 94.465C60.8627 94.267 61.4201 94.168 62.0214 94.168C62.6301 94.168 63.1874 94.267 63.6934 94.465C64.2067 94.663 64.6504 94.9417 65.0244 95.301C65.4057 95.6603 65.7027 96.082 65.9154 96.566C66.1281 97.0427 66.2344 97.5707 66.2344 98.15C66.2344 98.722 66.1281 99.2537 65.9154 99.745C65.7027 100.229 65.4057 100.651 65.0244 101.01C64.6504 101.362 64.2067 101.637 63.6934 101.835C63.1874 102.033 62.6337 102.132 62.0324 102.132ZM62.0214 100.614C62.3661 100.614 62.6814 100.555 62.9674 100.438C63.2607 100.321 63.5174 100.152 63.7374 99.932C63.9574 99.712 64.1261 99.4517 64.2434 99.151C64.3681 98.8503 64.4304 98.5167 64.4304 98.15C64.4304 97.7833 64.3681 97.4497 64.2434 97.149C64.1261 96.8483 63.9574 96.588 63.7374 96.368C63.5247 96.148 63.2717 95.9793 62.9784 95.862C62.6851 95.7447 62.3661 95.686 62.0214 95.686C61.6767 95.686 61.3577 95.7447 61.0644 95.862C60.7784 95.9793 60.5254 96.148 60.3054 96.368C60.0854 96.588 59.9131 96.8483 59.7884 97.149C59.6711 97.4497 59.6124 97.7833 59.6124 98.15C59.6124 98.5093 59.6711 98.843 59.7884 99.151C59.9131 99.4517 60.0817 99.712 60.2944 99.932C60.5144 100.152 60.7711 100.321 61.0644 100.438C61.3577 100.555 61.6767 100.614 62.0214 100.614ZM67.5736 102V94.3H69.0476L73.5906 99.844H72.8756V94.3H74.6356V102H73.1726L68.6186 96.456H69.3336V102H67.5736ZM78.0524 102V95.752H75.5884V94.3H82.2984V95.752H79.8344V102H78.0524ZM83.2572 102V94.3H86.5902C87.2796 94.3 87.8736 94.4137 88.3722 94.641C88.8709 94.861 89.2559 95.18 89.5272 95.598C89.7986 96.016 89.9342 96.5147 89.9342 97.094C89.9342 97.666 89.7986 98.161 89.5272 98.579C89.2559 98.9897 88.8709 99.305 88.3722 99.525C87.8736 99.745 87.2796 99.855 86.5902 99.855H84.2472L85.0392 99.074V102H83.2572ZM88.1522 102L86.2272 99.206H88.1302L90.0772 102H88.1522ZM85.0392 99.272L84.2472 98.436H86.4912C87.0412 98.436 87.4519 98.3187 87.7232 98.084C87.9946 97.842 88.1302 97.512 88.1302 97.094C88.1302 96.6687 87.9946 96.3387 87.7232 96.104C87.4519 95.8693 87.0412 95.752 86.4912 95.752H84.2472L85.0392 94.905V99.272ZM95.0861 102.132C94.4774 102.132 93.9128 102.033 93.3921 101.835C92.8788 101.637 92.4314 101.358 92.0501 100.999C91.6761 100.64 91.3828 100.218 91.1701 99.734C90.9648 99.25 90.8621 98.722 90.8621 98.15C90.8621 97.578 90.9648 97.05 91.1701 96.566C91.3828 96.082 91.6798 95.6603 92.0611 95.301C92.4424 94.9417 92.8898 94.663 93.4031 94.465C93.9164 94.267 94.4738 94.168 95.0751 94.168C95.6838 94.168 96.2411 94.267 96.7471 94.465C97.2604 94.663 97.7041 94.9417 98.0781 95.301C98.4594 95.6603 98.7564 96.082 98.9691 96.566C99.1818 97.0427 99.2881 97.5707 99.2881 98.15C99.2881 98.722 99.1818 99.2537 98.9691 99.745C98.7564 100.229 98.4594 100.651 98.0781 101.01C97.7041 101.362 97.2604 101.637 96.7471 101.835C96.2411 102.033 95.6874 102.132 95.0861 102.132ZM95.0751 100.614C95.4198 100.614 95.7351 100.555 96.0211 100.438C96.3144 100.321 96.5711 100.152 96.7911 99.932C97.0111 99.712 97.1798 99.4517 97.2971 99.151C97.4218 98.8503 97.4841 98.5167 97.4841 98.15C97.4841 97.7833 97.4218 97.4497 97.2971 97.149C97.1798 96.8483 97.0111 96.588 96.7911 96.368C96.5784 96.148 96.3254 95.9793 96.0321 95.862C95.7388 95.7447 95.4198 95.686 95.0751 95.686C94.7304 95.686 94.4114 95.7447 94.1181 95.862C93.8321 95.9793 93.5791 96.148 93.3591 96.368C93.1391 96.588 92.9668 96.8483 92.8421 97.149C92.7248 97.4497 92.6661 97.7833 92.6661 98.15C92.6661 98.5093 92.7248 98.843 92.8421 99.151C92.9668 99.4517 93.1354 99.712 93.3481 99.932C93.5681 100.152 93.8248 100.321 94.1181 100.438C94.4114 100.555 94.7304 100.614 95.0751 100.614ZM100.627 102V94.3H102.409V100.548H106.27V102H100.627ZM108.905 97.402H112.612V98.788H108.905V97.402ZM109.037 100.57H113.228V102H107.266V94.3H113.085V95.73H109.037V100.57ZM119.4 97.402H123.107V98.788H119.4V97.402ZM119.532 100.57H123.723V102H117.761V94.3H123.58V95.73H119.532V100.57ZM131.974 102.132C131.366 102.132 130.805 102.037 130.291 101.846C129.785 101.648 129.342 101.369 128.96 101.01C128.586 100.651 128.293 100.229 128.08 99.745C127.875 99.261 127.772 98.7293 127.772 98.15C127.772 97.5707 127.875 97.039 128.08 96.555C128.293 96.071 128.59 95.6493 128.971 95.29C129.353 94.9307 129.8 94.6557 130.313 94.465C130.827 94.267 131.391 94.168 132.007 94.168C132.689 94.168 133.302 94.2817 133.844 94.509C134.394 94.7363 134.856 95.0663 135.23 95.499L134.086 96.555C133.808 96.2617 133.503 96.0453 133.173 95.906C132.843 95.7593 132.484 95.686 132.095 95.686C131.721 95.686 131.38 95.7447 131.072 95.862C130.764 95.9793 130.497 96.148 130.269 96.368C130.049 96.588 129.877 96.8483 129.752 97.149C129.635 97.4497 129.576 97.7833 129.576 98.15C129.576 98.5093 129.635 98.8393 129.752 99.14C129.877 99.4407 130.049 99.7047 130.269 99.932C130.497 100.152 130.761 100.321 131.061 100.438C131.369 100.555 131.707 100.614 132.073 100.614C132.425 100.614 132.766 100.559 133.096 100.449C133.434 100.332 133.76 100.137 134.075 99.866L135.087 101.153C134.669 101.468 134.182 101.71 133.624 101.879C133.074 102.048 132.524 102.132 131.974 102.132ZM133.459 100.922V98.029H135.087V101.153L133.459 100.922ZM138.382 97.402H142.089V98.788H138.382V97.402ZM138.514 100.57H142.705V102H136.743V94.3H142.562V95.73H138.514V100.57ZM144.122 102V94.3H147.455C148.145 94.3 148.739 94.4137 149.237 94.641C149.736 94.861 150.121 95.18 150.392 95.598C150.664 96.016 150.799 96.5147 150.799 97.094C150.799 97.666 150.664 98.161 150.392 98.579C150.121 98.9897 149.736 99.305 149.237 99.525C148.739 99.745 148.145 99.855 147.455 99.855H145.112L145.904 99.074V102H144.122ZM149.017 102L147.092 99.206H148.995L150.942 102H149.017ZM145.904 99.272L145.112 98.436H147.356C147.906 98.436 148.317 98.3187 148.588 98.084C148.86 97.842 148.995 97.512 148.995 97.094C148.995 96.6687 148.86 96.3387 148.588 96.104C148.317 95.8693 147.906 95.752 147.356 95.752H145.112L145.904 94.905V99.272ZM153.85 97.402H157.557V98.788H153.85V97.402ZM153.982 100.57H158.173V102H152.211V94.3H158.03V95.73H153.982V100.57ZM159.591 102V94.3H161.065L165.608 99.844H164.893V94.3H166.653V102H165.19L160.636 96.456H161.351V102H159.591ZM172.16 102.132C171.566 102.132 171.012 102.037 170.499 101.846C169.993 101.648 169.553 101.369 169.179 101.01C168.805 100.651 168.512 100.229 168.299 99.745C168.094 99.261 167.991 98.7293 167.991 98.15C167.991 97.5707 168.094 97.039 168.299 96.555C168.512 96.071 168.805 95.6493 169.179 95.29C169.56 94.9307 170.004 94.6557 170.51 94.465C171.016 94.267 171.57 94.168 172.171 94.168C172.838 94.168 173.44 94.2853 173.975 94.52C174.518 94.7473 174.972 95.0847 175.339 95.532L174.195 96.588C173.931 96.2873 173.638 96.0637 173.315 95.917C172.992 95.763 172.64 95.686 172.259 95.686C171.9 95.686 171.57 95.7447 171.269 95.862C170.968 95.9793 170.708 96.148 170.488 96.368C170.268 96.588 170.096 96.8483 169.971 97.149C169.854 97.4497 169.795 97.7833 169.795 98.15C169.795 98.5167 169.854 98.8503 169.971 99.151C170.096 99.4517 170.268 99.712 170.488 99.932C170.708 100.152 170.968 100.321 171.269 100.438C171.57 100.555 171.9 100.614 172.259 100.614C172.64 100.614 172.992 100.541 173.315 100.394C173.638 100.24 173.931 100.009 174.195 99.701L175.339 100.757C174.972 101.204 174.518 101.545 173.975 101.78C173.44 102.015 172.835 102.132 172.16 102.132ZM176.542 102V94.3H178.324V102H176.542ZM179.14 102L182.572 94.3H184.332L187.775 102H185.905L183.089 95.202H183.793L180.966 102H179.14ZM180.856 100.35L181.329 98.997H185.289L185.773 100.35H180.856ZM188.574 102V94.3H190.048L193.326 99.734H192.545L195.768 94.3H197.231L197.253 102H195.581L195.57 96.863H195.878L193.304 101.186H192.501L189.872 96.863H190.246V102H188.574ZM200.719 97.402H204.426V98.788H200.719V97.402ZM200.851 100.57H205.042V102H199.08V94.3H204.899V95.73H200.851V100.57ZM206.459 102V94.3H207.933L212.476 99.844H211.761V94.3H213.521V102H212.058L207.504 96.456H208.219V102H206.459ZM216.938 102V95.752H214.474V94.3H221.184V95.752H218.72V102H216.938ZM225.776 102.132C225.167 102.132 224.602 102.033 224.082 101.835C223.568 101.637 223.121 101.358 222.74 100.999C222.366 100.64 222.072 100.218 221.86 99.734C221.654 99.25 221.552 98.722 221.552 98.15C221.552 97.578 221.654 97.05 221.86 96.566C222.072 96.082 222.369 95.6603 222.751 95.301C223.132 94.9417 223.579 94.663 224.093 94.465C224.606 94.267 225.163 94.168 225.765 94.168C226.373 94.168 226.931 94.267 227.437 94.465C227.95 94.663 228.394 94.9417 228.768 95.301C229.149 95.6603 229.446 96.082 229.659 96.566C229.871 97.0427 229.978 97.5707 229.978 98.15C229.978 98.722 229.871 99.2537 229.659 99.745C229.446 100.229 229.149 100.651 228.768 101.01C228.394 101.362 227.95 101.637 227.437 101.835C226.931 102.033 226.377 102.132 225.776 102.132ZM225.765 100.614C226.109 100.614 226.425 100.555 226.711 100.438C227.004 100.321 227.261 100.152 227.481 99.932C227.701 99.712 227.869 99.4517 227.987 99.151C228.111 98.8503 228.174 98.5167 228.174 98.15C228.174 97.7833 228.111 97.4497 227.987 97.149C227.869 96.8483 227.701 96.588 227.481 96.368C227.268 96.148 227.015 95.9793 226.722 95.862C226.428 95.7447 226.109 95.686 225.765 95.686C225.42 95.686 225.101 95.7447 224.808 95.862C224.522 95.9793 224.269 96.148 224.049 96.368C223.829 96.588 223.656 96.8483 223.532 97.149C223.414 97.4497 223.356 97.7833 223.356 98.15C223.356 98.5093 223.414 98.843 223.532 99.151C223.656 99.4517 223.825 99.712 224.038 99.932C224.258 100.152 224.514 100.321 224.808 100.438C225.101 100.555 225.42 100.614 225.765 100.614ZM234.432 102V94.3H237.765C238.454 94.3 239.048 94.4137 239.547 94.641C240.046 94.861 240.431 95.18 240.702 95.598C240.973 96.016 241.109 96.5147 241.109 97.094C241.109 97.666 240.973 98.161 240.702 98.579C240.431 98.997 240.046 99.3197 239.547 99.547C239.048 99.767 238.454 99.877 237.765 99.877H235.422L236.214 99.074V102H234.432ZM236.214 99.272L235.422 98.425H237.666C238.216 98.425 238.627 98.3077 238.898 98.073C239.169 97.8383 239.305 97.512 239.305 97.094C239.305 96.6687 239.169 96.3387 238.898 96.104C238.627 95.8693 238.216 95.752 237.666 95.752H235.422L236.214 94.905V99.272ZM240.983 102L244.415 94.3H246.175L249.618 102H247.748L244.932 95.202H245.636L242.809 102H240.983ZM242.699 100.35L243.172 98.997H247.132L247.616 100.35H242.699ZM250.416 102V94.3H253.749C254.439 94.3 255.033 94.4137 255.531 94.641C256.03 94.861 256.415 95.18 256.686 95.598C256.958 96.016 257.093 96.5147 257.093 97.094C257.093 97.666 256.958 98.161 256.686 98.579C256.415 98.9897 256.03 99.305 255.531 99.525C255.033 99.745 254.439 99.855 253.749 99.855H251.406L252.198 99.074V102H250.416ZM255.311 102L253.386 99.206H255.289L257.236 102H255.311ZM252.198 99.272L251.406 98.436H253.65C254.2 98.436 254.611 98.3187 254.882 98.084C255.154 97.842 255.289 97.512 255.289 97.094C255.289 96.6687 255.154 96.3387 254.882 96.104C254.611 95.8693 254.2 95.752 253.65 95.752H251.406L252.198 94.905V99.272ZM257.493 102L260.925 94.3H262.685L266.128 102H264.258L261.442 95.202H262.146L259.319 102H257.493ZM259.209 100.35L259.682 98.997H263.642L264.126 100.35H259.209ZM270.042 102V94.3H273.804C274.772 94.3 275.498 94.4833 275.982 94.85C276.474 95.2167 276.719 95.7007 276.719 96.302C276.719 96.7053 276.62 97.0573 276.422 97.358C276.224 97.6513 275.953 97.8787 275.608 98.04C275.264 98.2013 274.868 98.282 274.42 98.282L274.629 97.831C275.113 97.831 275.542 97.9117 275.916 98.073C276.29 98.227 276.58 98.458 276.785 98.766C276.998 99.074 277.104 99.4517 277.104 99.899C277.104 100.559 276.844 101.076 276.323 101.45C275.803 101.817 275.036 102 274.024 102H270.042ZM271.813 100.658H273.892C274.354 100.658 274.703 100.585 274.937 100.438C275.179 100.284 275.3 100.042 275.3 99.712C275.3 99.3893 275.179 99.151 274.937 98.997C274.703 98.8357 274.354 98.755 273.892 98.755H271.681V97.457H273.584C274.017 97.457 274.347 97.3837 274.574 97.237C274.809 97.083 274.926 96.852 274.926 96.544C274.926 96.2433 274.809 96.0197 274.574 95.873C274.347 95.719 274.017 95.642 273.584 95.642H271.813V100.658ZM278.454 102V94.3H280.236V102H278.454ZM282.063 102V94.3H285.825C286.793 94.3 287.519 94.4833 288.003 94.85C288.494 95.2167 288.74 95.7007 288.74 96.302C288.74 96.7053 288.641 97.0573 288.443 97.358C288.245 97.6513 287.974 97.8787 287.629 98.04C287.284 98.2013 286.888 98.282 286.441 98.282L286.65 97.831C287.134 97.831 287.563 97.9117 287.937 98.073C288.311 98.227 288.601 98.458 288.806 98.766C289.019 99.074 289.125 99.4517 289.125 99.899C289.125 100.559 288.865 101.076 288.344 101.45C287.823 101.817 287.057 102 286.045 102H282.063ZM283.834 100.658H285.913C286.375 100.658 286.723 100.585 286.958 100.438C287.2 100.284 287.321 100.042 287.321 99.712C287.321 99.3893 287.2 99.151 286.958 98.997C286.723 98.8357 286.375 98.755 285.913 98.755H283.702V97.457H285.605C286.038 97.457 286.368 97.3837 286.595 97.237C286.83 97.083 286.947 96.852 286.947 96.544C286.947 96.2433 286.83 96.0197 286.595 95.873C286.368 95.719 286.038 95.642 285.605 95.642H283.834V100.658ZM290.474 102V94.3H292.256V100.548H296.117V102H290.474ZM297.113 102V94.3H298.895V102H297.113ZM304.462 102.132C303.853 102.132 303.289 102.033 302.768 101.835C302.255 101.637 301.807 101.358 301.426 100.999C301.052 100.64 300.759 100.218 300.546 99.734C300.341 99.25 300.238 98.722 300.238 98.15C300.238 97.578 300.341 97.05 300.546 96.566C300.759 96.082 301.056 95.6603 301.437 95.301C301.818 94.9417 302.266 94.663 302.779 94.465C303.292 94.267 303.85 94.168 304.451 94.168C305.06 94.168 305.617 94.267 306.123 94.465C306.636 94.663 307.08 94.9417 307.454 95.301C307.835 95.6603 308.132 96.082 308.345 96.566C308.558 97.0427 308.664 97.5707 308.664 98.15C308.664 98.722 308.558 99.2537 308.345 99.745C308.132 100.229 307.835 100.651 307.454 101.01C307.08 101.362 306.636 101.637 306.123 101.835C305.617 102.033 305.063 102.132 304.462 102.132ZM304.451 100.614C304.796 100.614 305.111 100.555 305.397 100.438C305.69 100.321 305.947 100.152 306.167 99.932C306.387 99.712 306.556 99.4517 306.673 99.151C306.798 98.8503 306.86 98.5167 306.86 98.15C306.86 97.7833 306.798 97.4497 306.673 97.149C306.556 96.8483 306.387 96.588 306.167 96.368C305.954 96.148 305.701 95.9793 305.408 95.862C305.115 95.7447 304.796 95.686 304.451 95.686C304.106 95.686 303.787 95.7447 303.494 95.862C303.208 95.9793 302.955 96.148 302.735 96.368C302.515 96.588 302.343 96.8483 302.218 97.149C302.101 97.4497 302.042 97.7833 302.042 98.15C302.042 98.5093 302.101 98.843 302.218 99.151C302.343 99.4517 302.511 99.712 302.724 99.932C302.944 100.152 303.201 100.321 303.494 100.438C303.787 100.555 304.106 100.614 304.451 100.614ZM311.491 102V95.752H309.027V94.3H315.737V95.752H313.273V102H311.491ZM318.335 97.402H322.042V98.788H318.335V97.402ZM318.467 100.57H322.658V102H316.696V94.3H322.515V95.73H318.467V100.57ZM327.761 102.132C327.167 102.132 326.613 102.037 326.1 101.846C325.594 101.648 325.154 101.369 324.78 101.01C324.406 100.651 324.112 100.229 323.9 99.745C323.694 99.261 323.592 98.7293 323.592 98.15C323.592 97.5707 323.694 97.039 323.9 96.555C324.112 96.071 324.406 95.6493 324.78 95.29C325.161 94.9307 325.605 94.6557 326.111 94.465C326.617 94.267 327.17 94.168 327.772 94.168C328.439 94.168 329.04 94.2853 329.576 94.52C330.118 94.7473 330.573 95.0847 330.94 95.532L329.796 96.588C329.532 96.2873 329.238 96.0637 328.916 95.917C328.593 95.763 328.241 95.686 327.86 95.686C327.5 95.686 327.17 95.7447 326.87 95.862C326.569 95.9793 326.309 96.148 326.089 96.368C325.869 96.588 325.696 96.8483 325.572 97.149C325.454 97.4497 325.396 97.7833 325.396 98.15C325.396 98.5167 325.454 98.8503 325.572 99.151C325.696 99.4517 325.869 99.712 326.089 99.932C326.309 100.152 326.569 100.321 326.87 100.438C327.17 100.555 327.5 100.614 327.86 100.614C328.241 100.614 328.593 100.541 328.916 100.394C329.238 100.24 329.532 100.009 329.796 99.701L330.94 100.757C330.573 101.204 330.118 101.545 329.576 101.78C329.04 102.015 328.435 102.132 327.761 102.132ZM330.991 102L334.423 94.3H336.183L339.626 102H337.756L334.94 95.202H335.644L332.817 102H330.991ZM332.707 100.35L333.18 98.997H337.14L337.624 100.35H332.707ZM342.955 102.132C342.339 102.132 341.749 102.051 341.184 101.89C340.62 101.721 340.165 101.505 339.82 101.241L340.425 99.899C340.755 100.134 341.144 100.328 341.591 100.482C342.046 100.629 342.504 100.702 342.966 100.702C343.318 100.702 343.601 100.669 343.813 100.603C344.033 100.53 344.195 100.431 344.297 100.306C344.4 100.181 344.451 100.038 344.451 99.877C344.451 99.6717 344.371 99.5103 344.209 99.393C344.048 99.2683 343.835 99.1693 343.571 99.096C343.307 99.0153 343.014 98.942 342.691 98.876C342.376 98.8027 342.057 98.7147 341.734 98.612C341.419 98.5093 341.129 98.3773 340.865 98.216C340.601 98.0547 340.385 97.842 340.216 97.578C340.055 97.314 339.974 96.9767 339.974 96.566C339.974 96.126 340.092 95.7263 340.326 95.367C340.568 95.0003 340.928 94.7107 341.404 94.498C341.888 94.278 342.493 94.168 343.219 94.168C343.703 94.168 344.18 94.2267 344.649 94.344C345.119 94.454 345.533 94.6227 345.892 94.85L345.342 96.203C344.983 95.9977 344.624 95.8473 344.264 95.752C343.905 95.6493 343.553 95.598 343.208 95.598C342.864 95.598 342.581 95.6383 342.361 95.719C342.141 95.7997 341.984 95.906 341.888 96.038C341.793 96.1627 341.745 96.3093 341.745 96.478C341.745 96.676 341.826 96.8373 341.987 96.962C342.149 97.0793 342.361 97.1747 342.625 97.248C342.889 97.3213 343.179 97.3947 343.494 97.468C343.817 97.5413 344.136 97.6257 344.451 97.721C344.774 97.8163 345.067 97.9447 345.331 98.106C345.595 98.2673 345.808 98.48 345.969 98.744C346.138 99.008 346.222 99.3417 346.222 99.745C346.222 100.178 346.101 100.574 345.859 100.933C345.617 101.292 345.254 101.582 344.77 101.802C344.294 102.022 343.689 102.132 342.955 102.132Z" fill="#0089B6"/>
</g>
<g filter="url(#filter1_di_38_5)">
<path d="M38.1053 77.152C28.5693 77.152 21.1133 74.496 15.7373 69.184C10.3613 63.872 7.67325 56.288 7.67325 46.432V8.8H23.2253V45.856C23.2253 52.256 24.5373 56.864 27.1613 59.68C29.7853 62.496 33.4653 63.904 38.2013 63.904C42.9373 63.904 46.6173 62.496 49.2413 59.68C51.8653 56.864 53.1772 52.256 53.1772 45.856V8.8H68.5373V46.432C68.5373 56.288 65.8493 63.872 60.4733 69.184C55.0973 74.496 47.6413 77.152 38.1053 77.152ZM114.242 23.584C118.338 23.584 121.986 24.416 125.186 26.08C128.45 27.68 131.01 30.176 132.866 33.568C134.722 36.896 135.65 41.184 135.65 46.432V76H120.674V48.736C120.674 44.576 119.746 41.504 117.89 39.52C116.098 37.536 113.538 36.544 110.21 36.544C107.842 36.544 105.698 37.056 103.778 38.08C101.922 39.04 100.45 40.544 99.3615 42.592C98.3375 44.64 97.8255 47.264 97.8255 50.464V76H82.8495V24.352H97.1535V38.656L94.4655 34.336C96.3215 30.88 98.9775 28.224 102.434 26.368C105.89 24.512 109.826 23.584 114.242 23.584ZM149.225 76V24.352H164.201V76H149.225ZM156.713 17.152C153.961 17.152 151.721 16.352 149.993 14.752C148.265 13.152 147.401 11.168 147.401 8.8C147.401 6.432 148.265 4.448 149.993 2.848C151.721 1.248 153.961 0.447994 156.713 0.447994C159.465 0.447994 161.705 1.216 163.433 2.752C165.161 4.224 166.025 6.144 166.025 8.512C166.025 11.008 165.161 13.088 163.433 14.752C161.769 16.352 159.529 17.152 156.713 17.152Z" fill="#005387"/>
<path d="M186.982 76V21.472H165.478V8.8H224.038V21.472H202.534V76H186.982ZM251.732 76.768C245.844 76.768 240.66 75.616 236.18 73.312C231.764 71.008 228.34 67.872 225.908 63.904C223.476 59.872 222.26 55.296 222.26 50.176C222.26 44.992 223.444 40.416 225.812 36.448C228.244 32.416 231.54 29.28 235.7 27.04C239.86 24.736 244.564 23.584 249.812 23.584C254.868 23.584 259.412 24.672 263.444 26.848C267.54 28.96 270.772 32.032 273.14 36.064C275.508 40.032 276.692 44.8 276.692 50.368C276.692 50.944 276.66 51.616 276.596 52.384C276.532 53.088 276.468 53.76 276.404 54.4H234.452V45.664H268.531L262.772 48.256C262.772 45.568 262.228 43.232 261.14 41.248C260.052 39.264 258.548 37.728 256.628 36.64C254.708 35.488 252.468 34.912 249.908 34.912C247.348 34.912 245.076 35.488 243.092 36.64C241.172 37.728 239.668 39.296 238.58 41.344C237.492 43.328 236.948 45.696 236.948 48.448V50.752C236.948 53.568 237.556 56.064 238.772 58.24C240.052 60.352 241.812 61.984 244.052 63.136C246.356 64.224 249.044 64.768 252.116 64.768C254.868 64.768 257.268 64.352 259.316 63.52C261.428 62.688 263.348 61.44 265.076 59.776L273.044 68.416C270.676 71.104 267.7 73.184 264.116 74.656C260.532 76.064 256.404 76.768 251.732 76.768ZM311.622 76.768C306.054 76.768 301.094 75.648 296.742 73.408C292.39 71.104 288.966 67.936 286.47 63.904C284.038 59.872 282.822 55.296 282.822 50.176C282.822 44.992 284.038 40.416 286.47 36.448C288.966 32.416 292.39 29.28 296.742 27.04C301.094 24.736 306.054 23.584 311.622 23.584C317.062 23.584 321.798 24.736 325.83 27.04C329.862 29.28 332.838 32.512 334.758 36.736L323.142 42.976C321.798 40.544 320.102 38.752 318.054 37.6C316.07 36.448 313.894 35.872 311.526 35.872C308.966 35.872 306.662 36.448 304.614 37.6C302.566 38.752 300.934 40.384 299.718 42.496C298.566 44.608 297.99 47.168 297.99 50.176C297.99 53.184 298.566 55.744 299.718 57.856C300.934 59.968 302.566 61.6 304.614 62.752C306.662 63.904 308.966 64.48 311.526 64.48C313.894 64.48 316.07 63.936 318.054 62.848C320.102 61.696 321.798 59.872 323.142 57.376L334.758 63.712C332.838 67.872 329.862 71.104 325.83 73.408C321.798 75.648 317.062 76.768 311.622 76.768ZM375.061 76V65.92L374.101 63.712V45.664C374.101 42.464 373.109 39.968 371.125 38.176C369.205 36.384 366.229 35.488 362.197 35.488C359.445 35.488 356.725 35.936 354.037 36.832C351.413 37.664 349.173 38.816 347.317 40.288L341.941 29.824C344.757 27.84 348.149 26.304 352.117 25.216C356.085 24.128 360.117 23.584 364.213 23.584C372.085 23.584 378.197 25.44 382.549 29.152C386.901 32.864 389.077 38.656 389.077 46.528V76H375.061ZM359.317 76.768C355.285 76.768 351.829 76.096 348.949 74.752C346.069 73.344 343.861 71.456 342.325 69.088C340.789 66.72 340.021 64.064 340.021 61.12C340.021 58.048 340.757 55.36 342.229 53.056C343.765 50.752 346.165 48.96 349.429 47.68C352.693 46.336 356.949 45.664 362.197 45.664H375.925V54.4H363.829C360.309 54.4 357.877 54.976 356.533 56.128C355.253 57.28 354.613 58.72 354.613 60.448C354.613 62.368 355.349 63.904 356.821 65.056C358.357 66.144 360.437 66.688 363.061 66.688C365.557 66.688 367.797 66.112 369.781 64.96C371.765 63.744 373.205 61.984 374.101 59.68L376.405 66.592C375.317 69.92 373.333 72.448 370.453 74.176C367.573 75.904 363.861 76.768 359.317 76.768Z" fill="#0089B6"/>
</g>
<defs>
<filter id="filter0_di_38_5" x="45.9021" y="92.168" width="304.32" height="15.964" filterUnits="userSpaceOnUse" color-interpolation-filters="sRGB">
<feFlood flood-opacity="0" result="BackgroundImageFix"/>
<feColorMatrix in="SourceAlpha" type="matrix" values="0 0 0 0 0 0 0 0 0 0 0 0 0 0 0 0 0 0 127 0" result="hardAlpha"/>
<feOffset dy="2"/>
<feGaussianBlur stdDeviation="2"/>
<feComposite in2="hardAlpha" operator="out"/>
<feColorMatrix type="matrix" values="0 0 0 0 0 0 0 0 0 0 0 0 0 0 0 0 0 0 0.25 0"/>
<feBlend mode="normal" in2="BackgroundImageFix" result="effect1_dropShadow_38_5"/>
<feBlend mode="normal" in="SourceGraphic" in2="effect1_dropShadow_38_5" result="shape"/>
<feColorMatrix in="SourceAlpha" type="matrix" values="0 0 0 0 0 0 0 0 0 0 0 0 0 0 0 0 0 0 127 0" result="hardAlpha"/>
<feOffset dy="4"/>
<feGaussianBlur stdDeviation="2"/>
<feComposite in2="hardAlpha" operator="arithmetic" k2="-1" k3="1"/>
<feColorMatrix type="matrix" values="0 0 0 0 1 0 0 0 0 1 0 0 0 0 1 0 0 0 0.25 0"/>
<feBlend mode="normal" in2="shape" result="effect2_innerShadow_38_5"/>
</filter>
<filter id="filter1_di_38_5" x="3.67325" y="0.447998" width="389.404" height="84.704" filterUnits="userSpaceOnUse" color-interpolation-filters="sRGB">
<feFlood flood-opacity="0" result="BackgroundImageFix"/>
<feColorMatrix in="SourceAlpha" type="matrix" values="0 0 0 0 0 0 0 0 0 0 0 0 0 0 0 0 0 0 127 0" result="hardAlpha"/>
<feOffset dy="4"/>
<feGaussianBlur stdDeviation="2"/>
<feComposite in2="hardAlpha" operator="out"/>
<feColorMatrix type="matrix" values="0 0 0 0 0 0 0 0 0 0 0 0 0 0 0 0 0 0 0.25 0"/>
<feBlend mode="normal" in2="BackgroundImageFix" result="effect1_dropShadow_38_5"/>
<feBlend mode="normal" in="SourceGraphic" in2="effect1_dropShadow_38_5" result="shape"/>
<feColorMatrix in="SourceAlpha" type="matrix" values="0 0 0 0 0 0 0 0 0 0 0 0 0 0 0 0 0 0 127 0" result="hardAlpha"/>
<feOffset dy="4"/>
<feGaussianBlur stdDeviation="2"/>
<feComposite in2="hardAlpha" operator="arithmetic" k2="-1" k3="1"/>
<feColorMatrix type="matrix" values="0 0 0 0 1 0 0 0 0 1 0 0 0 0 1 0 0 0 0.25 0"/>
<feBlend mode="normal" in2="shape" result="effect2_innerShadow_38_5"/>
</filter>
</defs>
</svg>
